<?xml version="1.0" standalone="no"?>
<!DOCTYPE svg PUBLIC "-//W3C//DTD SVG 20010904//EN"
 "http://www.w3.org/TR/2001/REC-SVG-20010904/DTD/svg10.dtd">
<svg version="1.0" xmlns="http://www.w3.org/2000/svg"
 width="512.000000pt" height="512.000000pt" viewBox="0 0 512.000000 512.000000"
 preserveAspectRatio="xMidYMid meet">

<g transform="translate(0.000000,512.000000) scale(0.100000,-0.100000)"
fill="#000000" stroke="none">
<path d="M3285 4966 c-67 -21 -118 -52 -162 -97 -24 -24 -192 -244 -373 -489
l-330 -445 -853 -5 -852 -5 -60 -28 c-79 -37 -156 -114 -192 -191 l-28 -61 0
-395 0 -395 27 -57 c15 -32 47 -80 73 -107 l46 -50 -41 -41 c-23 -23 -56 -72
-73 -108 l-32 -67 0 -390 0 -390 32 -67 c17 -36 50 -85 73 -108 l41 -41 -46
-50 c-26 -27 -58 -75 -73 -107 l-27 -57 0 -395 0 -395 28 -60 c37 -79 114
-156 191 -192 l61 -28 1235 0 1235 0 67 33 c82 40 157 119 190 200 22 55 23
67 26 420 3 313 1 372 -13 420 -20 67 -45 112 -98 169 l-38 42 42 43 c23 24
56 72 73 108 l31 65 0 390 0 390 -31 65 c-17 36 -50 84 -73 108 l-42 43 51 56
c57 64 89 140 97 226 l6 57 436 0 c469 0 498 3 584 53 64 38 125 105 160 177
29 60 32 73 32 165 0 87 -3 107 -26 155 -21 43 -715 992 -946 1292 -53 70
-116 115 -195 140 -69 21 -174 23 -233 4z m210 -155 c22 -10 51 -29 65 -42 42
-40 940 -1258 961 -1302 50 -111 -2 -249 -115 -310 l-41 -22 -970 0 -970 0
-40 22 c-47 25 -86 64 -111 113 -24 46 -25 162 -2 206 22 41 911 1240 951
1283 18 18 50 42 72 52 53 25 147 25 200 0z m-1202 -1044 c-4 -7 -41 -58 -80
-114 -79 -108 -101 -157 -110 -244 -17 -162 91 -339 244 -401 57 -23 63 -23
516 -26 l457 -3 0 -23 c0 -37 -27 -115 -52 -152 -13 -20 -45 -45 -73 -59 l-51
-25 -1206 2 -1206 3 -43 30 c-24 17 -57 50 -74 74 l-30 43 -3 356 c-2 243 0
369 8 395 14 49 74 115 125 138 38 17 87 19 813 19 633 0 772 -2 765 -13z
m890 -1221 c45 -22 91 -66 115 -110 15 -28 17 -70 17 -401 0 -331 -2 -373 -17
-401 -24 -44 -70 -88 -115 -110 -37 -18 -82 -19 -1203 -22 -829 -2 -1180 0
-1217 8 -71 15 -125 57 -157 121 l-26 53 0 351 0 351 26 52 c14 29 41 64 60
78 71 55 25 53 1299 51 1137 -2 1181 -3 1218 -21z m4 -1217 c53 -25 106 -86
121 -138 15 -48 16 -690 2 -742 -13 -48 -75 -118 -124 -140 -39 -18 -97 -19
-1234 -19 -1316 0 -1230 -4 -1301 63 -70 66 -71 71 -71 465 0 277 3 360 14
386 20 48 71 101 119 125 42 21 44 21 1236 21 1191 0 1195 0 1238 -21z"/>
<path d="M3365 4329 c-44 -25 -45 -32 -45 -286 l0 -244 25 -24 c13 -14 36 -25
50 -25 14 0 37 11 50 25 l25 24 0 244 c0 219 -2 247 -17 265 -22 26 -62 35
-88 21z"/>
<path d="M3364 3579 c-22 -11 -44 -48 -44 -73 0 -7 9 -25 21 -40 41 -52 129
-23 129 43 0 55 -59 93 -106 70z"/>
<path d="M1030 3501 c-45 -14 -84 -39 -116 -73 -54 -57 -69 -95 -69 -179 0
-67 3 -81 30 -124 127 -205 424 -158 474 75 27 127 -50 258 -173 295 -53 16
-106 18 -146 6z m118 -155 c85 -44 65 -181 -28 -201 -41 -9 -96 18 -115 56
-49 95 49 194 143 145z"/>
<path d="M982 2264 c-243 -121 -154 -485 117 -484 83 0 133 22 188 83 40 43
73 121 73 172 0 86 -74 199 -155 236 -62 28 -158 25 -223 -7z m188 -153 c36
-36 46 -73 30 -112 -36 -87 -157 -95 -199 -12 -37 72 15 152 97 153 35 0 49
-6 72 -29z"/>
<path d="M2040 2090 c-12 -12 -20 -33 -20 -55 0 -22 8 -43 20 -55 19 -19 33
-20 495 -20 l476 0 24 25 c14 13 25 36 25 50 0 14 -11 37 -25 50 l-24 25 -476
0 c-462 0 -476 -1 -495 -20z"/>
<path d="M1027 1066 c-60 -17 -113 -59 -152 -121 -27 -43 -30 -57 -30 -124 0
-84 15 -122 69 -179 156 -166 438 -55 439 173 0 101 -46 182 -129 227 -61 33
-133 42 -197 24z m146 -175 c65 -65 16 -181 -76 -181 -41 0 -91 41 -101 83
-27 107 99 176 177 98z"/>
<path d="M2040 870 c-27 -27 -26 -81 1 -106 20 -18 45 -19 470 -22 287 -2 463
1 487 8 26 6 43 18 50 35 17 36 15 48 -9 79 l-20 26 -480 0 c-466 0 -480 -1
-499 -20z"/>
</g>
</svg>
